<svg xmlns="http://www.w3.org/2000/svg" width="19.98826" height="12.37499" viewBox="0 0 19.98826 12.37499"><title>Ресурс 42</title><rect width="19.98826" height="12.37499" rx="2.375" style="fill:#9c3"/><path d="M8.52983,6.84381a4.23579,4.23579,0,0,1-.55566,2.41846,1.97675,1.97675,0,0,1-1.73731.791,1.99094,1.99094,0,0,1-1.72754-.77344,4.02291,4.02291,0,0,1-.581-2.31079V5.73224a4.14155,4.14155,0,0,1,.55615-2.38843,1.99088,1.99088,0,0,1,1.74219-.781A2.0102,2.0102,0,0,1,7.959,3.31623a3.99581,3.99581,0,0,1,.5708,2.32592ZM7.60356,5.577A3.39475,3.39475,0,0,0,7.273,3.86212a1.137,1.137,0,0,0-1.04638-.53833A1.123,1.123,0,0,0,5.19,3.85968,3.31747,3.31747,0,0,0,4.85454,5.5069V6.98908A3.44383,3.44383,0,0,0,5.1978,8.734a1.13493,1.13493,0,0,0,1.03906.56323,1.11875,1.11875,0,0,0,1.01856-.53076,3.3185,3.3185,0,0,0,.34814-1.67236Z" style="fill:#fff"/><path d="M9.30131,4.06476a1.47836,1.47836,0,0,1,.418-1.0813,1.57026,1.57026,0,0,1,2.15283.00244A1.5305,1.5305,0,0,1,12.2852,4.095V4.4505a1.45952,1.45952,0,0,1-.418,1.07886,1.441,1.441,0,0,1-1.064.41821,1.47276,1.47276,0,0,1-1.07666-.41821,1.49041,1.49041,0,0,1-.4253-1.114Zm.69092.38355a.94721.94721,0,0,0,.22022.645.74344.74344,0,0,0,.59082.25341.72912.72912,0,0,0,.57324-.24585.97733.97733,0,0,0,.21777-.6726V4.06183a.971.971,0,0,0-.21533-.64722.79779.79779,0,0,0-1.17139,0,1.00174,1.00174,0,0,0-.21533.66749Zm1.02149,4.9541-.52588-.33057,3.56006-5.698.52587.33057Zm1.8374-1.23682a1.47191,1.47191,0,0,1,.418-1.07886,1.44438,1.44438,0,0,1,1.07422-.42309A1.45933,1.45933,0,0,1,15.42,7.08405a1.51029,1.51029,0,0,1,.42041,1.1167v.35547a1.4709,1.4709,0,0,1-.418,1.0791,1.43948,1.43948,0,0,1-1.06934.42309A1.47242,1.47242,0,0,1,13.2769,9.6402a1.49072,1.49072,0,0,1-.42578-1.114Zm.69092.38867a.95742.95742,0,0,0,.22021.64991.74344.74344,0,0,0,.59082.25341.7235.7235,0,0,0,.57617-.24853.99542.99542,0,0,0,.21534-.675V8.16266a.95268.95268,0,0,0-.21778-.64722.8005.8005,0,0,0-1.16162-.00268.96475.96475,0,0,0-.22314.66992Z" style="fill:#fff"/></svg>