<svg xmlns="http://www.w3.org/2000/svg" viewBox="0 0 22 22"><defs><style>.cls-1{fill:#a1aaaf;}</style></defs><g id="Слой_2" data-name="Слой 2"><g id="Слой_1-2" data-name="Слой 1"><path class="cls-1" d="M16.82,3.93a1.29,1.29,0,1,0,1.29,1.29A1.29,1.29,0,0,0,16.82,3.93Z"/><path class="cls-1" d="M11.09,5.58A5.42,5.42,0,1,0,16.51,11,5.42,5.42,0,0,0,11.09,5.58Zm0,8.89A3.47,3.47,0,1,1,14.56,11,3.48,3.48,0,0,1,11.09,14.47Z"/><path class="cls-1" d="M15.39,22H6.61A6.61,6.61,0,0,1,0,15.39V6.61A6.61,6.61,0,0,1,6.61,0h8.78A6.61,6.61,0,0,1,22,6.61v8.78A6.61,6.61,0,0,1,15.39,22ZM6.61,2.07A4.55,4.55,0,0,0,2.07,6.61v8.78a4.55,4.55,0,0,0,4.54,4.54h8.78a4.55,4.55,0,0,0,4.54-4.54V6.61a4.55,4.55,0,0,0-4.54-4.54Z"/></g></g></svg>