<svg xmlns="http://www.w3.org/2000/svg" viewBox="0 0 25.99 25.15"><defs><style>.a{fill:none;stroke:#003f4e;stroke-miterlimit:10;stroke-width:1.02px;}</style></defs><title>menu_mobile</title><path class="a" d="M2,.51H23.94A1.54,1.54,0,0,1,25.48,2h0a1.54,1.54,0,0,1-1.54,1.54H2A1.54,1.54,0,0,1,.51,2h0A1.54,1.54,0,0,1,2,.51Z" transform="translate(0 0)"/><path class="a" d="M2,7.5H23.94A1.54,1.54,0,0,1,25.48,9h0a1.54,1.54,0,0,1-1.54,1.54H2A1.54,1.54,0,0,1,.51,9h0A1.54,1.54,0,0,1,2,7.5Z" transform="translate(0 0)"/><path class="a" d="M2,14.53H23.94a1.54,1.54,0,0,1,1.54,1.54h0a1.54,1.54,0,0,1-1.54,1.54H2A1.54,1.54,0,0,1,.51,16.07h0A1.54,1.54,0,0,1,2,14.53Z" transform="translate(0 0)"/><path class="a" d="M2,21.56H23.94a1.54,1.54,0,0,1,1.54,1.54h0a1.54,1.54,0,0,1-1.54,1.54H2A1.54,1.54,0,0,1,.51,23.1h0A1.54,1.54,0,0,1,2,21.56Z" transform="translate(0 0)"/></svg>