<svg xmlns="http://www.w3.org/2000/svg" width="27.39583" height="12.37499" viewBox="0 0 27.39583 12.37499"><title>Ресурс 33</title><rect width="27.39583" height="12.37499" rx="2.375" style="fill:#9c3"/><path d="M8.83138,9.61376H7.888L4.3099,4.13524V9.61376H3.36654V2.50438H4.3099L7.89779,8.00731V2.50438h.93359Z" style="fill:#fff"/><path d="M14.515,6.32762h-3.082V8.84716H15.013v.7666H10.49544V2.50438h4.46875V3.271H11.43294v2.29h3.082Z" style="fill:#fff"/><path d="M17.71224,7.37255l.13672.9375.20117-.84473,1.40625-4.96094h.791l1.37109,4.96094.19531.85937.15235-.957,1.10351-4.86328h.94141L22.28841,9.61376h-.85547L19.9681,4.43309l-.11133-.542-.11328.542L18.22591,9.61376h-.85547L15.65169,2.50438h.9375Z" style="fill:#fff"/></svg>