<svg xmlns="http://www.w3.org/2000/svg" xmlns:xlink="http://www.w3.org/1999/xlink" width="27.39583" height="12.375" viewBox="0 0 27.39583 12.375"><defs><linearGradient id="a" y1="6.1875" x2="27.39583" y2="6.1875" gradientUnits="userSpaceOnUse"><stop offset="0" stop-color="#e30613"/><stop offset="1" stop-color="#cc0611"/></linearGradient></defs><title>Ресурс 22</title><rect width="27.39583" height="12.375" rx="2.375" ry="2.375" style="fill:url(#a)"/><path d="M8.83138,9.61377H7.888L4.3099,4.13525V9.61377H3.36654V2.50439H4.3099L7.89779,8.00732V2.50439h.93359Z" style="fill:#fff"/><path d="M14.515,6.32764h-3.082V8.84717H15.013v.7666H10.49544V2.50439h4.46875V3.271H11.43294v2.29h3.082Z" style="fill:#fff"/><path d="M17.71224,7.37256l.13672.9375.20117-.84473,1.40625-4.96094h.791l1.37109,4.96094.19531.85938.15235-.957,1.10351-4.86329h.94141L22.28841,9.61377h-.85547L19.9681,4.43311l-.11133-.542-.11328.542L18.22591,9.61377h-.85547L15.65169,2.50439h.9375Z" style="fill:#fff"/></svg>