<svg xmlns="http://www.w3.org/2000/svg" viewBox="0 0 22 22"><defs><style>.cls-1{fill:#a1aaaf;}</style></defs><g id="Слой_2" data-name="Слой 2"><g id="Слой_1-2" data-name="Слой 1"><path class="cls-1" d="M11,0A11,11,0,1,0,22,11,11,11,0,0,0,11,0Zm5.89,12.57a2.64,2.64,0,0,1-2.64,2.64H7.49a2.64,2.64,0,0,1-2.64-2.64V9.43A2.64,2.64,0,0,1,7.49,6.79h6.76a2.64,2.64,0,0,1,2.64,2.64Z"/><path class="cls-1" d="M12.79,10.92,9.89,9.35c-.12-.07-.52,0-.52.15v3.08c0,.13.4.22.52.15l3-1.49C13,11.17,12.91,11,12.79,10.92Z"/></g></g></svg>